<?xml version="1.0" encoding="iso-8859-1"?>
<!-- Generator: Adobe Illustrator 19.0.0, SVG Export Plug-In . SVG Version: 6.00 Build 0)  -->
<svg version="1.1" id="Capa_1" xmlns="http://www.w3.org/2000/svg" xmlns:xlink="http://www.w3.org/1999/xlink" x="0px" y="0px"
	 viewBox="0 0 495.088 495.088" style="enable-background:new 0 0 495.088 495.088;" xml:space="preserve">
<g>
	<g>
		<path d="M444.823,424.847C306.488,317.513,107.334,342.645,0,480.98l12.632,9.816h0c13.637-17.577,29.18-33.588,46.345-47.74
			c128.279-105.761,318.006-87.507,423.767,40.772l12.344-10.184C480.187,455.571,463.329,439.206,444.823,424.847z"/>
	</g>
</g>
<g>
	<g>
		<rect x="239.48" y="16.292" width="16" height="350"/>
	</g>
</g>
<g>
	<g>
		<path d="M362.48,16.292h-115c-4.418,0-8,3.582-8,8v134c0,4.418,3.582,8,8,8h115c4.418,0,8-3.582,8-8v-134
			C370.48,19.874,366.898,16.292,362.48,16.292z M354.48,150.292h-99v-118h99V150.292z"/>
	</g>
</g>
<g>
	<g>
		<path d="M419.984,60.292H362.48c-4.418,0-8,3.582-8,8v82h-49.496c-4.418,0-8,3.582-8,8v44c0,4.418,3.582,8,8,8h115
			c4.418,0,8-3.582,8-8v-134C427.984,63.874,424.402,60.292,419.984,60.292z M411.984,194.292h-99v-28h49.496c4.418,0,8-3.582,8-8
			v-82h41.504V194.292z"/>
	</g>
</g>
<g>
	<g>
		<path d="M336.48,426.292c-19.84,0-66,2.008-66,20.504c0,18.496,46.16,20.496,66,20.496c19.84,0,66-1.992,66-20.496
			C402.48,428.292,356.32,426.292,336.48,426.292z M336.48,451.292c-14.671,0.315-29.325-1.195-43.624-4.496
			c14.298-3.309,28.952-4.822,43.624-4.504c14.672-0.318,29.326,1.195,43.624,4.504C365.805,450.097,351.151,451.607,336.48,451.292
			z"/>
	</g>
</g>
<g>
	<g>
		<rect x="389.489" y="446.514" transform="matrix(0.9834 -0.1816 0.1816 0.9834 -77.4602 79.8606)" width="16" height="33.048"/>
	</g>
</g>
<g>
	<g>
		<rect x="258.961" y="455.015" transform="matrix(0.1816 -0.9834 0.9834 0.1816 -229.8648 649.82)" width="33.048" height="16"/>
	</g>
</g>
<g>
	<g>
		<path d="M126.032,352.764c-5.672-8.744-19.008-4.96-28.608-1.328c-13.287,5.371-25.997,12.072-37.936,20
			c-12.118,7.634-23.43,16.48-33.76,26.4c-7.232,7.248-16.184,17.896-10.512,26.64c2.558,3.682,6.884,5.722,11.352,5.352
			c5.942-0.341,11.782-1.699,17.264-4.016c13.285-5.371,25.992-12.072,37.928-20c12.117-7.636,23.428-16.481,33.76-26.4
			C122.752,372.156,131.704,361.516,126.032,352.764z M73.072,392.372c-12.146,8.232-25.268,14.924-39.064,19.92
			c10.205-10.533,21.682-19.754,34.168-27.448c12.147-8.233,25.272-14.922,39.072-19.912
			C97.039,375.462,85.559,384.68,73.072,392.372z"/>
	</g>
</g>
<g>
	<g>
		
			<rect x="122.813" y="352.646" transform="matrix(0.7268 -0.6868 0.6868 0.7268 -217.8239 190.6993)" width="16.004" height="33.056"/>
	</g>
</g>
<g>
	<g>
		<rect x="20.222" y="418.893" transform="matrix(0.9243 -0.3818 0.3818 0.9243 -164.0891 43.7525)" width="16" height="33.048"/>
	</g>
</g>
<g>
	<g>
		<path d="M150.016,28.292v-24h-16v24c0,13.255-10.745,24-24,24v16c13.255,0,24,10.745,24,24v24h16v-24c0-13.255,10.745-24,24-24
			v-16C160.761,52.292,150.016,41.547,150.016,28.292z M142.016,68.292c-2.278-3.029-4.971-5.722-8-8h-0.024
			c3.038-2.276,5.739-4.969,8.024-8c2.276,3.031,4.969,5.724,8,8C146.985,62.568,144.292,65.261,142.016,68.292z"/>
	</g>
</g>
<g>
	<g>
		<path d="M427.976,232.292h-16c0,13.255-10.745,24-24,24v16c13.255,0,24,10.745,24,24h16c0-13.255,10.745-24,24-24v-16
			C438.721,256.292,427.976,245.547,427.976,232.292z M419.976,272.292c-2.276-3.031-4.969-5.724-8-8h-0.024
			c3.037-2.276,5.739-4.97,8.024-8c2.277,3.03,4.97,5.723,8,8C424.947,266.57,422.254,269.263,419.976,272.292z"/>
	</g>
</g>
<g>
	<g>
		<rect x="59.48" y="287.292" width="16" height="16"/>
	</g>
</g>
<g>
	<g>
		<rect x="27.48" y="287.292" width="16" height="16"/>
	</g>
</g>
<g>
	<g>
		<rect x="43.48" y="271.292" width="16" height="16"/>
	</g>
</g>
<g>
	<g>
		<rect x="43.48" y="303.292" width="16" height="16"/>
	</g>
</g>
<g>
	<g>
		<rect x="75.48" y="143.292" width="16" height="16"/>
	</g>
</g>
<g>
</g>
<g>
</g>
<g>
</g>
<g>
</g>
<g>
</g>
<g>
</g>
<g>
</g>
<g>
</g>
<g>
</g>
<g>
</g>
<g>
</g>
<g>
</g>
<g>
</g>
<g>
</g>
<g>
</g>
</svg>
