<svg height="511pt" viewBox="-70 0 511 511.99996" width="511pt" xmlns="http://www.w3.org/2000/svg"><path d="m327.917969 174.253906c-17.230469-12.351562-32.675781-15.5625-45.902344-9.546875-16.390625 7.453125-27.816406 27.996094-35.953125 64.644531-6.621094 29.808594-10.109375 66.371094-13.191406 98.628907-2.613282 27.386719-5.078125 53.253906-8.984375 70.148437-.929688 4.027344 1.660156 8.167969 5.679687 9.097656l78.800782 18.214844c4.027343.925782 8.164062-1.652344 9.09375-5.679687 1.796874-7.773438 8.296874-21.253907 14.582031-34.296875 1.820312-3.773438.234375-8.304688-3.535157-10.121094-3.769531-1.820312-8.304687-.238281-10.125 3.535156-5.320312 11.042969-10.417968 21.617188-13.492187 30.191406l-64.691406-14.953124c3.25-17.359376 5.453125-40.441407 7.769531-64.695313 5.582031-58.488281 13.226562-138.589844 40.324219-150.910156 7.929687-3.605469 18.289062-.894531 30.789062 8.066406 57.605469 41.292969 37.289063 108.699219 13.160157 162.808594-1.683594 3.773437.0625 8.332031 3.835937 10.011719 3.773437 1.683593 8.332031-.0625 10.011719-3.835938 24.414062-54.738281 49.09375-133.089844-18.171875-181.308594zm0 0"/><path d="m304.496094 442.183594-78.800782-18.214844c-4.027343-.929688-8.164062 1.660156-9.097656 5.679688-.15625.691406-3.886718 17.09375-2.53125 34.941406 2.46875 32.53125 19.332032 43.136718 33.042969 46.304687 2.902344.671875 6.074219 1.105469 9.429687 1.105469 12.515626 0 27.578126-6.019531 40.582032-28.210938 9.050781-15.441406 12.898437-31.820312 13.058594-32.507812.941406-4.082031-1.601563-8.152344-5.683594-9.097656zm-53.972656 53.9375c-24.453126-5.652344-22.574219-40.109375-20.4375-55.570313l63.1875 14.605469c-4.863282 14.828125-18.304688 46.617188-42.75 40.964844zm0 0"/><path d="m63.632812 263.679688 78.800782-18.214844c4.019531-.929688 6.609375-5.070313 5.679687-9.097656-3.902343-16.894532-6.371093-42.761719-8.984375-70.144532-3.082031-32.261718-6.570312-68.824218-13.191406-98.632812-8.140625-36.648438-19.5625-57.191406-35.953125-64.644532-13.226563-6.019531-28.671875-2.804687-45.902344 9.546876-34.421875 24.675781-48.566406 60.375-42.03125 106.105468 5.375 37.632813 23.785157 75.820313 37.230469 103.707032 7.222656 14.976562 13.457031 27.910156 15.253906 35.695312.933594 4.019531 5.070313 6.609375 9.097656 5.679688zm-10.691406-47.960938c-13.011718-26.992188-30.835937-63.960938-35.878906-99.265625-5.75-40.246094 5.980469-70.21875 35.859375-91.636719 8.355469-5.992187 20.328125-12.824218 30.789063-8.066406 27.09375 12.320312 34.738281 92.421875 40.320312 150.910156 2.316406 24.253906 4.519531 47.335938 7.769531 64.695313l-64.683593 14.953125c-3.035157-8.484375-8.117188-19.027344-14.175782-31.589844zm0 0"/><path d="m152.03125 263.164062c-1.707031-1.0625-3.765625-1.40625-5.726562-.953124l-78.800782 18.214843c-4.078125.941407-6.621094 5.015625-5.679687 9.09375.160156.691407 4.007812 17.066407 13.058593 32.507813 13.003907 22.191406 28.066407 28.210937 40.578126 28.210937 3.359374 0 6.53125-.433593 9.433593-1.105469 13.710938-3.167968 30.574219-13.773437 33.042969-46.304687 1.355469-17.847656-2.375-34.25-2.535156-34.941406-.453125-1.957031-1.667969-3.65625-3.371094-4.722657zm-30.554688 71.195313c-24.4375 5.652344-37.886718-26.136719-42.75-40.964844l63.203126-14.609375c2.160156 15.449219 4.085937 49.902344-20.453126 55.574219zm0 0"/></svg>