<?xml version="1.0" encoding="iso-8859-1"?>
<!-- Generator: Adobe Illustrator 16.0.0, SVG Export Plug-In . SVG Version: 6.00 Build 0)  -->
<!DOCTYPE svg PUBLIC "-//W3C//DTD SVG 1.1//EN" "http://www.w3.org/Graphics/SVG/1.1/DTD/svg11.dtd">
<svg version="1.1" id="Capa_1" xmlns="http://www.w3.org/2000/svg" xmlns:xlink="http://www.w3.org/1999/xlink" x="0px" y="0px"
	 width="184.969px" height="184.969px" viewBox="0 0 184.969 184.969" style="enable-background:new 0 0 184.969 184.969;"
	 xml:space="preserve">
<g>
	<path d="M37.42,124.169c-0.813-3.892-6.548-2.198-5.89,1.624c1.501,8.714,1.534,17.531,1.871,26.317
		c-3.925-0.451-8.534,0.729-12.005,1.122c-2.709,0.308-9.053-0.028-12.122,1.632c-0.912-9.395-2.244-18.778-2.676-28.18
		c-0.164-3.574-5.502-3.604-5.569,0c-0.306,16.508,2.048,32.968,3.377,49.397c0.291,3.597,5.434,3.652,5.629,0
		c0.292-5.462,0.075-10.911-0.343-16.355c3.301,1.154,8.859-0.083,11.704-0.185c3.557-0.128,8.426,0.562,12.403-0.251
		c0.345,4.682,0.893,9.346,1.974,13.966c0.657,2.807,4.617,1.548,4.216-1.162C37.632,156.162,40.73,140.006,37.42,124.169z"/>
	<path d="M73.385,124.228c-2.523-1.688-5.107,1.521-3.892,3.893c6.179,12.061,9.118,33.5-0.039,45.106
		c-2.792,3.54-6.956,1.907-9.875-0.597c-4.114-3.527-3.076-11.786-2.43-16.415c1.17-8.387,4.113-20.957,10.792-26.727
		c1.368-1.182-0.387-3.307-1.887-2.444c-15.743,9.043-27.013,59.334,2.055,54.831C86.026,179.098,85.621,132.419,73.385,124.228z"/>
	<path d="M109.562,124.842c-3.146-2.494-8.855-0.149-12.602,0.14c-2.748,0.212-6.909-0.688-9.544,0.491
		c-0.699,0.007-1.457,0.703-1.293,1.529c0.794,3.986,5.356,3.658,8.82,3.827c0.146,0.007,0.352,0.021,0.515,0.03
		c-2.362,5.45-1.54,15.579-1.726,19.732c-0.229,5.083-0.019,10.22,0.492,15.28c0.43,4.268,1.457,5.086,3.919,7.861
		c1.027,1.159,2.867-0.066,2.502-1.457c-0.21-0.8,0.441-4.804,0.324-6.404c-0.374-5.093-0.15-10.185-0.012-15.28
		c0.125-4.554,0.417-9.1,0.832-13.635c0.193-2.115,0.729-4.062,0.475-5.91c3.363-0.136,6.645-0.808,7.703-3.048
		C110.43,127.024,110.521,125.602,109.562,124.842z"/>
	<path d="M135.483,168.929c-2.922,1.727-4.644,5.066-8.518,3.601c-0.004-0.001-0.007,0-0.011-0.002
		c-0.51-4.357-0.76-8.728-0.918-13.102c1.406,0.084,2.813,0.167,4.219,0.251c1.821,0.108,3.603,0.517,5.395,0.121
		c2.437-0.539,2.437-4.37,0-4.908c-1.792-0.396-3.572,0.013-5.395,0.121c-1.45,0.086-2.901,0.172-4.354,0.259
		c-0.233-9.551-0.191-19.107-1.382-28.586c-0.496-3.945-6.617-4.166-6.349,0c0.995,15.41,0.248,31.603,4.444,46.58
		c0.271,0.969,1.119,1.444,1.997,1.518c0.077,0.505,0.334,0.973,0.876,1.251c4.455,2.298,10.569,0.353,13.23-3.866
		C140.001,170.132,137.488,167.744,135.483,168.929z"/>
	<path d="M141.413,121.002c-2.462-1.62-5.558-1.222-8.393-1.271c-2.561-0.044-5.836-0.426-8.321,0.394
		c-3.281,1.082-1.532,5.194,0.899,5.001c0.019,0.032,0.598,0.015,0.806,0.033c0.557,0.05,1.113,0.124,1.668,0.195
		c1.286,0.166,3.367,0.415,4.948,0.589c2.785,0.307,5.856,1.188,8.393-0.392C143.148,124.472,143.076,122.097,141.413,121.002z"/>
	<path d="M179.865,166.986c-4.021,0.688-8.089,1.22-12.1,1.997c-1.601-15.237-3.401-30.45-4.848-45.707
		c-0.291-3.067-4.543-3.1-4.791,0c-1.359,17.057-0.291,34.109,1.386,51.102c0.278,2.825,2.609,5.062,5.591,4.259
		c5.615-1.513,11.503-1.633,16.958-3.681C187.074,173.073,185.123,166.088,179.865,166.986z"/>
	<path d="M144.595,45.383C129.3,30.655,112.285,15.438,93.041,6.082c-1.27-0.618-2.601-0.686-3.834-0.393
		c-1.877-2.497-5.538-3.847-8.567-2.068C63.119,13.904,47.881,33.064,34.072,47.771C20.882,61.816,7.154,78.074,0.351,96.303
		c-2.215,5.935,6.645,9.011,9.796,4.13c10.955-16.972,23.622-31.807,37.534-46.411C59.954,41.14,76.03,29.727,86.97,15.577
		c14.579,12.252,29.524,23.955,43.5,36.927c8.24,7.647,16.019,15.775,23.459,24.2c5.616,6.358,9.643,15.26,17.365,19.096
		c3.631,1.803,8.716-0.329,8.516-4.886C179.072,74.108,155.8,56.173,144.595,45.383z"/>
</g>
<g>
</g>
<g>
</g>
<g>
</g>
<g>
</g>
<g>
</g>
<g>
</g>
<g>
</g>
<g>
</g>
<g>
</g>
<g>
</g>
<g>
</g>
<g>
</g>
<g>
</g>
<g>
</g>
<g>
</g>
</svg>
