<svg height="512pt" viewBox="0 0 512 512" width="512pt" xmlns="http://www.w3.org/2000/svg"><path d="m504.5 437h-3v-23c0-4.144531-3.355469-7.5-7.5-7.5h-8.25v-135.148438c3.425781-.695312 6-3.722656 6-7.351562s-2.574219-6.65625-6-7.351562v-22.648438c0-4.144531-3.355469-7.5-7.5-7.5h-60c-4.144531 0-7.5 3.355469-7.5 7.5v22.648438c-3.425781.695312-6 3.722656-6 7.351562s2.574219 6.65625 6 7.351562v5.835938l-12.25-4.730469v-110.957031c0-4.144531-3.355469-7.5-7.5-7.5h-35.5v-22.5c0-.035156 0-.070312 0-.105469 0-.023437 0-.042969-.003906-.066406-.019532-.992187-.234375-1.941406-.609375-2.804687l-42.652344-104.011719c-1.15625-2.8125-3.894531-4.652344-6.9375-4.652344h-41.796875v-4.859375h5.5c4.144531 0 7.5-3.355469 7.5-7.5s-3.355469-7.5-7.5-7.5h-26c-4.144531 0-7.5 3.355469-7.5 7.5s3.355469 7.5 7.5 7.5h5.5v4.859375h-41.796875c-3.042969 0-5.78125 1.835937-6.9375 4.652344l-42.652344 104.015625c-.375.863281-.589843 1.808594-.609375 2.800781 0 .023437 0 .042969-.003906.066406v.105469 22.5h-35.5c-4.144531 0-7.5 3.355469-7.5 7.5v30.332031c0 4.144531 3.355469 7.5 7.5 7.5s7.5-3.355469 7.5-7.5v-22.832031h255v97.667969l-25.214844-9.730469c-3.859375-1.492188-8.203125.433594-9.695312 4.296875-1.492188 3.863281.433594 8.207031 4.296875 9.699219l33.859375 13.066406h-261.492188l130.746094-50.460938 67.027344 25.871094c3.867187 1.492188 8.207031-.433594 9.699218-4.296875 1.492188-3.867187-.433593-8.207031-4.296874-9.699219l-69.730469-26.910156c-1.734375-.671875-3.660157-.671875-5.398438 0l-124.800781 48.164063v-42.917969c0-4.144531-3.355469-7.5-7.5-7.5s-7.5 3.355469-7.5 7.5v48.707031l-12.25 4.730469v-5.835938c3.425781-.695312 6-3.722656 6-7.351562s-2.574219-6.65625-6-7.351562v-22.648438c0-4.144531-3.355469-7.5-7.5-7.5h-60c-4.144531 0-7.5 3.355469-7.5 7.5v22.648438c-3.425781.695312-6 3.722656-6 7.351562s2.574219 6.65625 6 7.351562v135.148438h-8.25c-4.144531 0-7.5 3.355469-7.5 7.5v23h-3c-4.144531 0-7.5 3.355469-7.5 7.5v60c0 4.144531 3.355469 7.5 7.5 7.5h497c4.144531 0 7.5-3.355469 7.5-7.5v-60c0-4.144531-3.355469-7.5-7.5-7.5zm-292.765625-402.140625h88.53125l36.550781 89.140625h-161.632812zm-40.234375 119.140625v-15h169v15zm227 252.5v-107.5h12.25v107.5zm27.25-118.21875c.003906-.101562.003906-.203125 0-.304688v-16.476562h45v135h-45zm45-46.78125v15h-45v-15zm-87.25 57.5v107.5h-15v-107.5zm-45 107.5v-107.5h15v107.5zm-15-107.5v107.5h-15v-107.5zm-45 107.5v-107.5h15v107.5zm-15-107.5v107.5h-15v-107.5zm-45 107.5v-107.5h15v107.5zm-15-107.5v107.5h-15v-107.5zm-45 107.5v-107.5h15v107.5zm-15-107.5v107.5h-15v-107.5zm-42.25 107.5v-107.5h12.25v107.5zm-15-165v15h-45v-15zm-45 30h45v16.476562c-.003906.101563-.003906.203126 0 .304688v118.21875h-45zm455.75 225.5h-482v-45h48.75c4.144531 0 7.5-3.355469 7.5-7.5s-3.355469-7.5-7.5-7.5h-38.25v-15.5h461v15.5h-390c-4.144531 0-7.5 3.355469-7.5 7.5s3.355469 7.5 7.5 7.5h400.5zm0 0"/></svg>