<svg height="512pt" viewBox="0 -51 512 512" width="512pt" xmlns="http://www.w3.org/2000/svg"><path d="m202.066406 287.871094h-54.050781c-6.992187 0-12.679687 5.691406-12.679687 12.679687v29.527344c0 6.992187 5.6875 12.683594 12.679687 12.683594h54.050781c6.992188 0 12.679688-5.691407 12.679688-12.683594v-29.527344c0-6.992187-5.6875-12.679687-12.679688-12.679687zm-2.332031 39.875h-49.382813v-24.859375h49.382813zm0 0"/><path d="m306.949219 330.078125v-29.527344c0-6.988281-5.6875-12.679687-12.679688-12.679687h-54.050781c-6.992188 0-12.679688 5.691406-12.679688 12.679687v29.527344c0 6.992187 5.6875 12.683594 12.679688 12.683594h54.050781c6.992188 0 12.679688-5.691407 12.679688-12.683594zm-15.015625-2.332031h-49.382813v-24.859375h49.382813zm0 0"/><path d="m54.335938 395.042969h-46.828126c-4.148437 0-7.507812 3.359375-7.507812 7.507812 0 4.144531 3.359375 7.503907 7.507812 7.503907h46.828126c4.148437 0 7.507812-3.359376 7.507812-7.503907 0-4.148437-3.359375-7.507812-7.507812-7.507812zm0 0"/><path d="m472.984375 395.042969h-4.808594c1.835938-3.660157 2.878907-7.785157 2.878907-12.152344 0-.457031-.011719-.910156-.035157-1.363281h33.414063c4.144531 0 7.507812-3.359375 7.507812-7.507813v-102.636719c0-4.144531-3.363281-7.507812-7.507812-7.507812h-35.714844v-125.878906c0-8.648438-7.03125-15.683594-15.679688-15.683594h-42.363281c-8.648437 0-15.683593 7.035156-15.683593 15.683594v40.269531h-10.695313v-90.554687c0-8.433594-6.863281-15.296876-15.296875-15.296876h-26.015625v-43.691406c0-5.664062-3.617187-10.65625-8.996094-12.429687l-47.558593-15.640625c-3.976563-1.308594-8.371094-.6250002-11.761719 1.828125-3.386719 2.453125-5.410157 6.417969-5.410157 10.601562v167.226563h-11.804687v-51.167969c0-7.988281-6.5-14.492187-14.488281-14.492187h-44.75c-7.988282 0-14.488282 6.5-14.488282 14.492187v23.621094h-24.015624v-81.226563c0-7.816406-6.359376-14.171875-14.175782-14.171875h-45.382812c-7.8125 0-14.171875 6.355469-14.171875 14.171875v36.039063h-29.820313c-7.347656 0-13.324218 5.976562-13.324218 13.324219v159.246093c-3.800782 3.097657-7.300782 6.597657-10.429688 10.457031-.003906.003907-.003906.007813-.007812.007813-.820313 1.011719-1.617188 2.046875-2.382813 3.109375l-25.386719 35.113281c-3.027344 4.1875-4.628906 9.132813-4.628906 14.300781v21.84375c0 9.125 7.425781 16.550782 16.550781 16.550782h64.644531c1.390626 0 2.734376-.394532 3.902344-1.105469-.074218.8125-.117187 1.636719-.117187 2.46875 0 4.367187 1.042969 8.492187 2.878906 12.152344h-7.375c-4.148437 0-7.507813 3.359375-7.507813 7.507812 0 4.144531 3.359376 7.503907 7.507813 7.503907h195.648437c4.144532 0 7.507813-3.359376 7.507813-7.503907 0-4.148437-3.363281-7.507812-7.507813-7.507812h-100.390624c1.839843-3.660157 2.878906-7.785157 2.878906-12.152344 0-.890625-.042969-1.773437-.128906-2.644531 1.222656.820312 2.667968 1.28125 4.171874 1.28125h193.328126c.492187 0 .984374-.054688 1.460937-.148438-.027344.5-.042969 1.003906-.042969 1.511719 0 4.367187 1.042969 8.492187 2.878906 12.148437h-40.410156c-4.144531 0-7.503906 3.363282-7.503906 7.507813 0 4.148437 3.359375 7.507813 7.503906 7.507813h133.105469c4.144531 0 7.503906-3.359376 7.503906-7.507813 0-4.144531-3.359375-7.503906-7.503906-7.503906zm-41.246094-12.152344c0-6.695313 5.453125-12.148437 12.152344-12.148437s12.148437 5.449218 12.148437 12.148437-5.449218 12.152344-12.148437 12.152344-12.152344-5.453125-12.152344-12.152344zm-113.171875-16.378906 44.074219-53.121094c.921875-.851563 2.148437-1.335937 3.40625-1.335937h130.878906v10.011718h-125.621093c-2.3125 0-4.492188 1.0625-5.917969 2.886719l-32.445313 41.5625h-14.375zm91.441406-228.515625c0-.367188.296876-.667969.667969-.667969h42.363281c.367188 0 .667969.300781.667969.667969v125.878906h-25.5v-72.101562c0-7.449219-6.0625-13.507813-13.507812-13.507813h-4.691407zm-40.511718 125.878906v-70.59375h43.695312v70.59375zm-85.226563-248.125 43.699219 14.371094v88.316406c0 4.144531 3.359375 7.507812 7.507812 7.507812 4.148438 0 7.507813-3.363281 7.507813-7.507812v-31.011719h26.011719c.15625 0 .285156.128907.285156.285157v90.550781h-1.292969c-7.449219 0-13.507812 6.0625-13.507812 13.507812v72.105469h-11.496094v-115.410156c0-4.144532-3.359375-7.503906-7.507813-7.503906-4.148437 0-7.507812 3.359374-7.507812 7.503906v115.410156h-28.347656v-70.34375c0-7.289062-5.929688-13.21875-13.21875-13.21875h-2.132813zm.335938 179.574219v68.550781h-27.152344v-68.550781zm-85.863281-65.660157h43.695312v134.210938h-23.558594v-97.492188c0-7.511718-6.113281-13.621093-13.625-13.621093h-6.511718zm-97.746094-57.289062h43.699218v132.304688c0 4.148437 3.359376 7.507812 7.503907 7.507812 4.148437 0 7.507812-3.359375 7.507812-7.507812v-36.902344h44.15625v96.097656h-44.15625v-29.164062c0-4.148438-3.359375-7.507813-7.507812-7.507813-4.144531 0-7.503907 3.359375-7.503907 7.507813v29.164062h-43.699218zm-43.144532 50.214844h28.128907v141.332031c-9.832031.335937-19.394531 2.691406-28.128907 6.785156zm-15.9375 180.296875h60.898438c2.058594 0 3.730469 1.671875 3.730469 3.730469v17.398437c0 2.058594-1.671875 3.730469-3.730469 3.730469h-78.871094zm58.078126 80.003906c0-6.695313 5.453124-12.148437 12.152343-12.148437s12.148438 5.449218 12.148438 12.148437-5.449219 12.152344-12.148438 12.152344-12.152343-5.453125-12.152343-12.152344zm39.316406 0c0-6.695313 5.449218-12.148437 12.148437-12.148437s12.152344 5.449218 12.152344 12.148437-5.453125 12.152344-12.152344 12.152344-12.148437-5.453125-12.148437-12.152344zm39.574218-24.777344c-1.425781-1.65625-3.503906-2.609375-5.691406-2.609375h-81.621094c-2.070312 0-4.046874.851563-5.464843 2.355469l-8.152344 8.652344h-61.402344c-.847656 0-1.535156-.6875-1.535156-1.535157v-21.84375c0-.125.007813-.246093.011719-.371093h87.785156c10.335938 0 18.746094-8.410157 18.746094-18.746094v-17.398437c0-10.335938-8.410156-18.746094-18.746094-18.746094h-45.050781c9.054687-5.765625 19.671875-8.980469 30.648437-8.980469h408.515625v18.148437h-130.878906c-5.347656 0-10.5625 2.191407-14.304687 6.015626-.144532.144531-.28125.296874-.414063.457031l-52.269531 63h-112.949219zm194.398438 8.398438h-21.289062l22.980468-29.433594h121.953125v29.433594h-25.171875l-12.292968-10.265625c-1.347657-1.128906-3.050782-1.746094-4.8125-1.746094h-64.183594c-1.75 0-3.445313.613281-4.792969 1.730469zm19.144531 16.378906c0-6.695313 5.449219-12.148437 12.148438-12.148437s12.152343 5.449218 12.152343 12.148437-5.449218 12.152344-12.152343 12.152344c-6.699219 0-12.148438-5.453125-12.148438-12.152344zm0 0"/><path d="m504.492188 395.042969h-9.167969c-4.148438 0-7.507813 3.359375-7.507813 7.507812 0 4.144531 3.359375 7.503907 7.507813 7.503907h9.167969c4.148437 0 7.507812-3.359376 7.507812-7.503907 0-4.148437-3.359375-7.507812-7.507812-7.507812zm0 0"/></svg>