<svg height="512pt" viewBox="0 -51 512 512" width="512pt" xmlns="http://www.w3.org/2000/svg"><path d="m93.492188 115.078125h-37.335938c-3.203125 0-5.816406 2.601563-5.816406 5.816406v171.929688c10.921875-7.980469 24.214844-12.433594 38.078125-12.433594h19.109375v-165.3125zm0 0" fill="#6285a4"/><path d="m70.242188 120.894531c0-3.214843 2.613281-5.816406 5.816406-5.816406h-19.902344c-3.203125 0-5.816406 2.601563-5.816406 5.816406v171.929688c6.015625-4.394531 12.75-7.710938 19.902344-9.8125zm0 0" fill="#567a96"/><path d="m453.042969 129.824219h-42.371094c-4.515625 0-8.167969 3.652343-8.167969 8.167969v142.398437h58.707032v-142.398437c0-4.515626-3.652344-8.167969-8.167969-8.167969zm0 0" fill="#6285a4"/><path d="m431.859375 137.992188c0-4.515626 3.652344-8.167969 8.167969-8.167969h-29.355469c-4.515625 0-8.167969 3.652343-8.167969 8.167969v142.398437h29.355469zm0 0" fill="#567a96"/><path d="m420.703125 191.773438v88.617187h-58.71875v-88.617187c0-3.3125 2.691406-6.003907 6.003906-6.003907h46.707031c3.3125 0 6.007813 2.691407 6.007813 6.003907zm0 0" fill="#acacac"/><path d="m397.347656 185.769531h-29.359375c-3.3125 0-6.003906 2.691407-6.003906 6.003907v88.617187h29.359375v-88.617187c0-3.3125 2.691406-6.003907 6.003906-6.003907zm0 0" fill="#a09f9f"/><path d="m369 79.921875h-36.523438v200.46875h44.3125v-192.679687c0-4.304688-3.484374-7.789063-7.789062-7.789063zm0 0" fill="#8e8d8d"/><path d="m332.476562 79.921875h19.683594v200.46875h-19.683594zm0 0" fill="#848383"/><path d="m331.644531 23.429688-47.566406-15.644532c-3.605469-1.183594-7.316406 1.5-7.316406 5.292969v267.3125h58.714843v-251.667969c0-2.410156-1.550781-4.542968-3.832031-5.292968zm0 0" fill="#6285a4"/><path d="m299.441406 13.078125c0-.078125.011719-.15625.015625-.234375l-15.378906-5.058594c-3.605469-1.183594-7.316406 1.5-7.316406 5.292969v267.3125h22.679687zm0 0" fill="#567a96"/><path d="m292.117188 193.527344v86.863281h-44.175782v-92.570313h38.457032c3.15625 0 5.71875 2.550782 5.71875 5.707032zm0 0" fill="#acacac"/><path d="m247.941406 187.820312h20.480469v92.570313h-20.480469zm0 0" fill="#a09f9f"/><path d="m242.96875 122.15625h-44.753906c-3.855469 0-6.976563 3.132812-6.976563 6.988281v151.246094h58.707031v-151.246094c0-3.855469-3.125-6.988281-6.976562-6.988281zm0 0" fill="#8e8d8d"/><path d="m218.589844 129.144531c0-3.855469 3.121094-6.988281 6.976562-6.988281h-27.351562c-3.855469 0-6.976563 3.132812-6.976563 6.988281v151.246094h27.351563zm0 0" fill="#848383"/><path d="m211.367188 166.378906v114.011719h-61.171876v-120.117187h55.054688c3.382812 0 6.117188 2.730468 6.117188 6.105468zm0 0" fill="#6285a4"/><path d="m150.65625 160.273438h-.460938v120.117187h26.460938v-120.117187zm0 0" fill="#567a96"/><path d="m152.199219 160.273438v120.117187h-58.707031v-208.855469c0-3.683594 2.980468-6.664062 6.664062-6.664062h45.375c3.683594 0 6.667969 2.980468 6.667969 6.664062zm0 0" fill="#acacac"/><path d="m111.058594 71.535156c0-3.683594 2.984375-6.664062 6.667968-6.664062h-17.570312c-3.683594 0-6.664062 2.980468-6.664062 6.664062v208.855469h17.566406zm0 0" fill="#a09f9f"/><path d="m504.433594 274.929688v95.542968c0 1.960938-1.589844 3.550782-3.550782 3.550782h-31.855468l-14.382813-12.011719h-64.183593l-14.472657 12.011719h-193.320312l-9.476563-11.011719h-81.621094l-10.382812 11.011719h-64.632812c-4.996094 0-9.046876-4.050782-9.046876-9.050782v-21.839844c0-3.554687 1.121094-7.015624 3.203126-9.902343l25.382812-35.113281c12.144531-16.785157 31.601562-26.734376 52.324219-26.734376h412.464843c1.960938 0 3.550782 1.585938 3.550782 3.546876zm0 0" fill="#e7e7e7"/><path d="m35.171875 362.449219c0-3.550781 1.121094-7.015625 3.203125-9.898438l25.386719-35.113281c12.140625-16.789062 31.601562-26.738281 52.320312-26.738281h388.351563v-15.769531c0-1.960938-1.589844-3.546876-3.550782-3.546876h-412.464843c-20.722657 0-40.179688 9.949219-52.324219 26.734376l-25.382812 35.113281c-2.082032 2.882812-3.203126 6.347656-3.203126 9.902343v21.839844c0 4.996094 4.050782 9.046875 9.046876 9.046875h18.621093v-11.570312zm0 0" fill="#dbdddd"/><path d="m299.441406 300.550781v29.527344c0 2.855469-2.3125 5.175781-5.171875 5.175781h-54.054687c-2.851563 0-5.164063-2.320312-5.164063-5.175781v-29.527344c0-2.851562 2.3125-5.175781 5.164063-5.175781h54.054687c2.859375 0 5.171875 2.324219 5.171875 5.175781zm0 0" fill="#3dcff3"/><path d="m277.195312 318.96875c-13.03125 0-23.597656-10.5625-23.597656-23.59375h-13.371094c-2.859374 0-5.175781 2.316406-5.175781 5.175781v29.527344c0 2.859375 2.316407 5.175781 5.175781 5.175781h54.042969c2.855469 0 5.171875-2.316406 5.171875-5.175781v-11.109375zm0 0" fill="#00bdd1"/><path d="m207.242188 300.550781v29.527344c0 2.855469-2.320313 5.175781-5.175782 5.175781h-54.050781c-2.855469 0-5.175781-2.320312-5.175781-5.175781v-29.527344c0-2.851562 2.320312-5.175781 5.175781-5.175781h54.050781c2.855469 0 5.175782 2.324219 5.175782 5.175781zm0 0" fill="#3dcff3"/><path d="m188.320312 320.269531c-13.746093 0-24.894531-11.144531-24.894531-24.894531h-15.410156c-2.859375 0-5.175781 2.316406-5.175781 5.175781v29.527344c0 2.859375 2.316406 5.175781 5.175781 5.175781h54.050781c2.859375 0 5.175782-2.316406 5.175782-5.175781v-9.808594zm0 0" fill="#00bdd1"/><path d="m102.8125 335.253906h-92.183594l-.988281-.339844c.320313-.582031.679687-1.140624 1.070313-1.683593l25.382812-35.113281c.683594-.929688 1.371094-1.851563 2.105469-2.742188h64.613281c6.203125 0 11.238281 5.035156 11.238281 11.242188v17.394531c0 6.207031-5.035156 11.242187-11.238281 11.242187zm0 0" fill="#3dcff3"/><path d="m38.207031 295.375h-.007812c-.078125.097656-.15625.199219-.238281.300781-.265626.328125-.53125.660157-.789063 1-.359375.46875-.714844.945313-1.0625 1.425781-.003906.003907-.007813.011719-.015625.015626l-25.382812 35.113281c0 .003906 0 .003906-.003907.003906-.238281.332031-.460937.671875-.671875 1.015625-.050781.082031-.097656.164062-.148437.246094-.082031.140625-.15625.28125-.234375.421875l.976562.335937h40.253906l12.878907-17.820312c7.234375-10 17.0625-17.570313 28.210937-22.058594zm0 0" fill="#00bdd1"/><path d="m504.433594 304.542969v25.027343h-133.128906l-34.695313 44.453126h-34.023437l54.523437-65.714844c2.351563-2.402344 5.574219-3.765625 8.9375-3.765625zm0 0" fill="#acacac"/><g fill="#627182"><path d="m443.894531 363.230469c10.851563 0 19.648438 8.808593 19.648438 19.660156 0 10.859375-8.796875 19.660156-19.648438 19.660156-10.859375 0-19.660156-8.800781-19.660156-19.660156 0-10.851563 8.800781-19.660156 19.660156-19.660156zm0 0"/><path d="m424.234375 382.890625c0 10.859375-8.796875 19.660156-19.660156 19.660156-10.859375 0-19.65625-8.800781-19.65625-19.660156 0-10.851563 8.796875-19.660156 19.65625-19.660156 10.863281 0 19.660156 8.808593 19.660156 19.660156zm0 0"/><path d="m151.457031 363.230469c10.863281 0 19.660157 8.808593 19.660157 19.660156 0 10.859375-8.796876 19.660156-19.660157 19.660156-10.859375 0-19.65625-8.800781-19.65625-19.660156 0-10.851563 8.796875-19.660156 19.65625-19.660156zm0 0"/><path d="m131.800781 382.890625c0 10.859375-8.800781 19.660156-19.660156 19.660156-10.851563 0-19.648437-8.800781-19.648437-19.660156 0-10.851563 8.796874-19.660156 19.648437-19.660156 10.859375 0 19.660156 8.808593 19.660156 19.660156zm0 0"/></g><path d="m438.882812 382.890625c0-8.257813 5.105469-15.324219 12.332032-18.234375-2.261719-.910156-4.730469-1.425781-7.320313-1.425781-10.859375 0-19.660156 8.808593-19.660156 19.660156 0 10.859375 8.800781 19.660156 19.660156 19.660156 2.589844 0 5.058594-.515625 7.320313-1.425781-7.226563-2.90625-12.332032-9.96875-12.332032-18.234375zm0 0" fill="#52606d"/><path d="m399.566406 382.890625c0-8.261719 5.105469-15.328125 12.335938-18.234375-2.265625-.910156-4.734375-1.425781-7.328125-1.425781-10.859375 0-19.65625 8.808593-19.65625 19.660156 0 10.859375 8.796875 19.660156 19.65625 19.660156 2.59375 0 5.0625-.515625 7.328125-1.425781-7.230469-2.902344-12.335938-9.964844-12.335938-18.234375zm0 0" fill="#52606d"/><path d="m146.449219 382.890625c0-8.261719 5.105469-15.328125 12.335937-18.234375-2.265625-.910156-4.734375-1.425781-7.324218-1.425781-10.863282 0-19.660157 8.808593-19.660157 19.660156 0 10.859375 8.796875 19.660156 19.660157 19.660156 2.589843 0 5.058593-.515625 7.324218-1.425781-7.230468-2.902344-12.335937-9.964844-12.335937-18.234375zm0 0" fill="#52606d"/><path d="m107.140625 382.890625c0-8.257813 5.105469-15.324219 12.328125-18.234375-2.269531-.910156-4.738281-1.425781-7.328125-1.425781-10.851563 0-19.648437 8.808593-19.648437 19.660156 0 10.859375 8.796874 19.660156 19.648437 19.660156 2.589844 0 5.058594-.515625 7.328125-1.425781-7.222656-2.90625-12.328125-9.96875-12.328125-18.234375zm0 0" fill="#52606d"/><path d="m202.066406 287.871094h-54.050781c-6.992187 0-12.679687 5.691406-12.679687 12.679687v29.527344c0 6.992187 5.6875 12.683594 12.679687 12.683594h54.050781c6.992188 0 12.679688-5.691407 12.679688-12.683594v-29.527344c0-6.992187-5.6875-12.679687-12.679688-12.679687zm-2.332031 39.875h-49.382813v-24.859375h49.382813zm0 0"/><path d="m306.949219 330.078125v-29.527344c0-6.988281-5.6875-12.679687-12.679688-12.679687h-54.050781c-6.992188 0-12.679688 5.691406-12.679688 12.679687v29.527344c0 6.992187 5.6875 12.683594 12.679688 12.683594h54.050781c6.992188 0 12.679688-5.691407 12.679688-12.683594zm-15.015625-2.332031h-49.382813v-24.859375h49.382813zm0 0"/><path d="m54.335938 395.042969h-46.828126c-4.148437 0-7.507812 3.359375-7.507812 7.507812 0 4.144531 3.359375 7.503907 7.507812 7.503907h46.828126c4.148437 0 7.507812-3.359376 7.507812-7.503907 0-4.148437-3.359375-7.507812-7.507812-7.507812zm0 0"/><path d="m472.984375 395.042969h-4.808594c1.835938-3.660157 2.878907-7.785157 2.878907-12.152344 0-.457031-.011719-.910156-.035157-1.363281h33.414063c4.144531 0 7.507812-3.359375 7.507812-7.507813v-102.636719c0-4.144531-3.363281-7.507812-7.507812-7.507812h-35.714844v-125.878906c0-8.648438-7.03125-15.683594-15.679688-15.683594h-42.363281c-8.648437 0-15.683593 7.035156-15.683593 15.683594v40.269531h-10.695313v-90.554687c0-8.433594-6.863281-15.296876-15.296875-15.296876h-26.015625v-43.691406c0-5.664062-3.617187-10.65625-8.996094-12.429687l-47.558593-15.640625c-3.976563-1.308594-8.371094-.6250002-11.761719 1.828125-3.386719 2.453125-5.410157 6.417969-5.410157 10.601562v167.226563h-11.804687v-51.167969c0-7.988281-6.5-14.492187-14.488281-14.492187h-44.75c-7.988282 0-14.488282 6.5-14.488282 14.492187v23.621094h-24.015624v-81.226563c0-7.816406-6.359376-14.171875-14.175782-14.171875h-45.382812c-7.8125 0-14.171875 6.355469-14.171875 14.171875v36.039063h-29.820313c-7.347656 0-13.324218 5.976562-13.324218 13.324219v159.246093c-3.800782 3.097657-7.300782 6.597657-10.429688 10.457031-.003906.003907-.003906.007813-.007812.007813-.820313 1.011719-1.617188 2.046875-2.382813 3.109375l-25.386719 35.113281c-3.027344 4.1875-4.628906 9.132813-4.628906 14.300781v21.84375c0 9.125 7.425781 16.550782 16.550781 16.550782h64.644531c1.390626 0 2.734376-.394532 3.902344-1.105469-.074218.8125-.117187 1.636719-.117187 2.46875 0 4.367187 1.042969 8.492187 2.878906 12.152344h-7.375c-4.148437 0-7.507813 3.359375-7.507813 7.507812 0 4.144531 3.359376 7.503907 7.507813 7.503907h195.648437c4.144532 0 7.507813-3.359376 7.507813-7.503907 0-4.148437-3.363281-7.507812-7.507813-7.507812h-100.390624c1.839843-3.660157 2.878906-7.785157 2.878906-12.152344 0-.890625-.042969-1.773437-.128906-2.644531 1.222656.820312 2.667968 1.28125 4.171874 1.28125h193.328126c.492187 0 .984374-.054688 1.460937-.148438-.027344.5-.042969 1.003906-.042969 1.511719 0 4.367187 1.042969 8.492187 2.878906 12.148437h-40.410156c-4.144531 0-7.503906 3.363282-7.503906 7.507813 0 4.148437 3.359375 7.507813 7.503906 7.507813h133.105469c4.144531 0 7.503906-3.359376 7.503906-7.507813 0-4.144531-3.359375-7.503906-7.503906-7.503906zm-41.246094-12.152344c0-6.695313 5.453125-12.148437 12.152344-12.148437s12.148437 5.449218 12.148437 12.148437-5.449218 12.152344-12.148437 12.152344-12.152344-5.453125-12.152344-12.152344zm-113.171875-16.378906 44.074219-53.121094c.921875-.851563 2.148437-1.335937 3.40625-1.335937h130.878906v10.011718h-125.621093c-2.3125 0-4.492188 1.0625-5.917969 2.886719l-32.445313 41.5625h-14.375zm91.441406-228.515625c0-.367188.296876-.667969.667969-.667969h42.363281c.367188 0 .667969.300781.667969.667969v125.878906h-25.5v-72.101562c0-7.449219-6.0625-13.507813-13.507812-13.507813h-4.691407zm-40.511718 125.878906v-70.59375h43.695312v70.59375zm-85.226563-248.125 43.699219 14.371094v88.316406c0 4.144531 3.359375 7.507812 7.507812 7.507812 4.148438 0 7.507813-3.363281 7.507813-7.507812v-31.011719h26.011719c.15625 0 .285156.128907.285156.285157v90.550781h-1.292969c-7.449219 0-13.507812 6.0625-13.507812 13.507812v72.105469h-11.496094v-115.410156c0-4.144532-3.359375-7.503906-7.507813-7.503906-4.148437 0-7.507812 3.359374-7.507812 7.503906v115.410156h-28.347656v-70.34375c0-7.289062-5.929688-13.21875-13.21875-13.21875h-2.132813zm.335938 179.574219v68.550781h-27.152344v-68.550781zm-85.863281-65.660157h43.695312v134.210938h-23.558594v-97.492188c0-7.511718-6.113281-13.621093-13.625-13.621093h-6.511718zm-97.746094-57.289062h43.699218v132.304688c0 4.148437 3.359376 7.507812 7.503907 7.507812 4.148437 0 7.507812-3.359375 7.507812-7.507812v-36.902344h44.15625v96.097656h-44.15625v-29.164062c0-4.148438-3.359375-7.507813-7.507812-7.507813-4.144531 0-7.503907 3.359375-7.503907 7.507813v29.164062h-43.699218zm-43.144532 50.214844h28.128907v141.332031c-9.832031.335937-19.394531 2.691406-28.128907 6.785156zm-15.9375 180.296875h60.898438c2.058594 0 3.730469 1.671875 3.730469 3.730469v17.398437c0 2.058594-1.671875 3.730469-3.730469 3.730469h-78.871094zm58.078126 80.003906c0-6.695313 5.453124-12.148437 12.152343-12.148437s12.148438 5.449218 12.148438 12.148437-5.449219 12.152344-12.148438 12.152344-12.152343-5.453125-12.152343-12.152344zm39.316406 0c0-6.695313 5.449218-12.148437 12.148437-12.148437s12.152344 5.449218 12.152344 12.148437-5.453125 12.152344-12.152344 12.152344-12.148437-5.453125-12.148437-12.152344zm39.574218-24.777344c-1.425781-1.65625-3.503906-2.609375-5.691406-2.609375h-81.621094c-2.070312 0-4.046874.851563-5.464843 2.355469l-8.152344 8.652344h-61.402344c-.847656 0-1.535156-.6875-1.535156-1.535157v-21.84375c0-.125.007813-.246093.011719-.371093h87.785156c10.335938 0 18.746094-8.410157 18.746094-18.746094v-17.398437c0-10.335938-8.410156-18.746094-18.746094-18.746094h-45.050781c9.054687-5.765625 19.671875-8.980469 30.648437-8.980469h408.515625v18.148437h-130.878906c-5.347656 0-10.5625 2.191407-14.304687 6.015626-.144532.144531-.28125.296874-.414063.457031l-52.269531 63h-112.949219zm194.398438 8.398438h-21.289062l22.980468-29.433594h121.953125v29.433594h-25.171875l-12.292968-10.265625c-1.347657-1.128906-3.050782-1.746094-4.8125-1.746094h-64.183594c-1.75 0-3.445313.613281-4.792969 1.730469zm19.144531 16.378906c0-6.695313 5.449219-12.148437 12.148438-12.148437s12.152343 5.449218 12.152343 12.148437-5.449218 12.152344-12.152343 12.152344c-6.699219 0-12.148438-5.453125-12.148438-12.152344zm0 0"/><path d="m504.492188 395.042969h-9.167969c-4.148438 0-7.507813 3.359375-7.507813 7.507812 0 4.144531 3.359375 7.503907 7.507813 7.503907h9.167969c4.148437 0 7.507812-3.359376 7.507812-7.503907 0-4.148437-3.359375-7.507812-7.507812-7.507812zm0 0"/></svg>